<svg width="24" height="24" viewBox="0 0 24 24" fill="none" xmlns="http://www.w3.org/2000/svg">
<path d="M12 21C7.5544 19.9895 4 15.6998 4 11.1818V6.27273L12 3L20 6.27273V11.1818C20 15.7015 16.4456 19.9895 12 21ZM5.6 7.09091V11.1818C5.64572 13.0736 6.29629 14.8979 7.45214 16.3755C8.608 17.8532 10.2054 18.9028 12 19.3636C13.7946 18.9028 15.392 17.8532 16.5479 16.3755C17.7037 14.8979 18.3543 13.0736 18.4 11.1818V7.09091L12 4.63636L5.6 7.09091Z" fill="#619AB0"/>
<path d="M12 11C13.1046 11 14 10.1046 14 9C14 7.89543 13.1046 7 12 7C10.8954 7 10 7.89543 10 9C10 10.1046 10.8954 11 12 11Z" fill="#619AB0"/>
<path d="M8 14.5C8.39418 15.2486 8.97232 15.8746 9.67518 16.3139C10.378 16.7532 11.1804 16.99 12 17C12.8196 16.99 13.622 16.7532 14.3248 16.3139C15.0277 15.8746 15.6058 15.2486 16 14.5C15.98 12.92 13.3264 12 12 12C10.6664 12 8.02 12.92 8 14.5Z" fill="#619AB0"/>
</svg>
